<mxfile host="65bd71144e">
    <diagram id="XLQ9ZA8FXm9MJyRXNUf3" name="Page-1">
        <mxGraphModel dx="1248" dy="1396" grid="1" gridSize="10" guides="1" tooltips="1" connect="1" arrows="1" fold="1" page="1" pageScale="1" pageWidth="850" pageHeight="1100" math="0" shadow="0">
            <root>
                <mxCell id="0"/>
                <mxCell id="1" parent="0"/>
                <mxCell id="140" value="" style="endArrow=none;html=1;exitX=0.5;exitY=1;exitDx=0;exitDy=0;entryX=0;entryY=0;entryDx=0;entryDy=0;fontSize=12;strokeColor=#d79b00;fillColor=#ffcd28;gradientColor=#ffa500;" parent="1" source="137" target="17" edge="1">
                    <mxGeometry width="50" height="50" relative="1" as="geometry">
                        <mxPoint x="-50" y="180" as="sourcePoint"/>
                        <mxPoint x="-90" y="-150" as="targetPoint"/>
                    </mxGeometry>
                </mxCell>
                <mxCell id="3" value="nombre_prensa" style="ellipse;whiteSpace=wrap;html=1;fillColor=#330066;gradientColor=#6666FF;" parent="1" vertex="1">
                    <mxGeometry x="-120" y="-480" width="80" height="40" as="geometry"/>
                </mxCell>
                <mxCell id="5" value="ciudad" style="ellipse;whiteSpace=wrap;html=1;fillColor=#330066;gradientColor=#6666FF;" parent="1" vertex="1">
                    <mxGeometry x="240" y="-240" width="80" height="40" as="geometry"/>
                </mxCell>
                <mxCell id="6" value="region" style="ellipse;whiteSpace=wrap;html=1;fillColor=#330066;gradientColor=#6666FF;" parent="1" vertex="1">
                    <mxGeometry x="200" y="-320" width="80" height="40" as="geometry"/>
                </mxCell>
                <mxCell id="7" value="pais" style="ellipse;whiteSpace=wrap;html=1;fillColor=#330066;gradientColor=#6666FF;" parent="1" vertex="1">
                    <mxGeometry y="-480" width="80" height="40" as="geometry"/>
                </mxCell>
                <mxCell id="8" value="continente" style="ellipse;whiteSpace=wrap;html=1;fillColor=#330066;gradientColor=#6666FF;" parent="1" vertex="1">
                    <mxGeometry x="160" y="-400" width="80" height="40" as="geometry"/>
                </mxCell>
                <mxCell id="13" value="nombre" style="ellipse;whiteSpace=wrap;html=1;fillColor=#330066;gradientColor=#6666FF;" parent="1" vertex="1">
                    <mxGeometry x="-740" y="80" width="80" height="40" as="geometry"/>
                </mxCell>
                <mxCell id="14" value="Fundadores" style="rounded=1;whiteSpace=wrap;html=1;fillColor=#FF99FF;gradientColor=#FF9933;gradientDirection=north;" parent="1" vertex="1">
                    <mxGeometry x="-640" y="80" width="160" height="80" as="geometry"/>
                </mxCell>
                <mxCell id="42" style="edgeStyle=none;html=1;exitX=0.25;exitY=0;exitDx=0;exitDy=0;entryX=0.5;entryY=1;entryDx=0;entryDy=0;strokeColor=none;" parent="1" source="17" target="20" edge="1">
                    <mxGeometry relative="1" as="geometry"/>
                </mxCell>
                <mxCell id="17" value="Prensa" style="rounded=1;whiteSpace=wrap;html=1;fillColor=#FF99FF;gradientColor=#FF9933;gradientDirection=north;" parent="1" vertex="1">
                    <mxGeometry x="-80" y="-120" width="120" height="80" as="geometry"/>
                </mxCell>
                <mxCell id="19" value="aÃ±o_fundacion" style="ellipse;whiteSpace=wrap;html=1;fillColor=#330066;gradientColor=#6666FF;" parent="1" vertex="1">
                    <mxGeometry x="-320" y="-320" width="80" height="40" as="geometry"/>
                </mxCell>
                <mxCell id="20" value="tipo_cobertura" style="ellipse;whiteSpace=wrap;html=1;fillColor=#330066;gradientColor=#6666FF;" parent="1" vertex="1">
                    <mxGeometry x="-200" y="-440" width="80" height="40" as="geometry"/>
                </mxCell>
                <mxCell id="25" value="Red_Social" style="rounded=1;whiteSpace=wrap;html=1;fillColor=#FF99FF;gradientColor=#FF9933;gradientDirection=north;" parent="1" vertex="1">
                    <mxGeometry x="200" y="400" width="160" height="80" as="geometry"/>
                </mxCell>
                <mxCell id="26" value="nombre&lt;br&gt;red social" style="ellipse;whiteSpace=wrap;html=1;fillColor=#330066;gradientColor=#6666FF;" parent="1" vertex="1">
                    <mxGeometry x="80" y="420" width="80" height="40" as="geometry"/>
                </mxCell>
                <mxCell id="28" value="id_fundadores" style="ellipse;whiteSpace=wrap;html=1;fillColor=#330066;gradientColor=#6666FF;" parent="1" vertex="1">
                    <mxGeometry x="-740" y="120" width="80" height="40" as="geometry"/>
                </mxCell>
                <mxCell id="33" value="" style="endArrow=none;html=1;entryX=1;entryY=0.5;entryDx=0;entryDy=0;exitX=0;exitY=0.5;exitDx=0;exitDy=0;fontSize=12;strokeColor=#d79b00;fillColor=#ffcd28;gradientColor=#ffa500;" parent="1" source="25" target="26" edge="1">
                    <mxGeometry width="50" height="50" relative="1" as="geometry">
                        <mxPoint x="420.0000000000002" y="300" as="sourcePoint"/>
                        <mxPoint x="439.9999999999998" y="290" as="targetPoint"/>
                    </mxGeometry>
                </mxCell>
                <mxCell id="35" value="" style="endArrow=none;html=1;entryX=0.5;entryY=1;entryDx=0;entryDy=0;exitX=1;exitY=0;exitDx=0;exitDy=0;fontSize=12;strokeColor=#d79b00;fillColor=#ffcd28;gradientColor=#ffa500;" parent="1" source="17" target="8" edge="1">
                    <mxGeometry width="50" height="50" relative="1" as="geometry">
                        <mxPoint x="370" y="-120" as="sourcePoint"/>
                        <mxPoint x="411.7157287525383" y="-169.99786437626915" as="targetPoint"/>
                    </mxGeometry>
                </mxCell>
                <mxCell id="36" value="" style="endArrow=none;html=1;entryX=0.5;entryY=1;entryDx=0;entryDy=0;exitX=0.5;exitY=0;exitDx=0;exitDy=0;fontSize=12;strokeColor=#d79b00;fillColor=#ffcd28;gradientColor=#ffa500;" parent="1" source="17" target="7" edge="1">
                    <mxGeometry width="50" height="50" relative="1" as="geometry">
                        <mxPoint x="400" y="-94.48399999999992" as="sourcePoint"/>
                        <mxPoint x="421.71572875253787" y="-159.99786437626915" as="targetPoint"/>
                    </mxGeometry>
                </mxCell>
                <mxCell id="37" value="" style="endArrow=none;html=1;entryX=0;entryY=0.5;entryDx=0;entryDy=0;exitX=1;exitY=0.5;exitDx=0;exitDy=0;fontSize=12;strokeColor=#d79b00;fillColor=#ffcd28;gradientColor=#ffa500;" parent="1" source="17" target="5" edge="1">
                    <mxGeometry width="50" height="50" relative="1" as="geometry">
                        <mxPoint x="400" y="-60" as="sourcePoint"/>
                        <mxPoint x="450" y="-94.14" as="targetPoint"/>
                    </mxGeometry>
                </mxCell>
                <mxCell id="39" value="}" style="endArrow=none;html=1;exitX=0.5;exitY=1;exitDx=0;exitDy=0;entryX=1;entryY=0.25;entryDx=0;entryDy=0;fontSize=12;strokeColor=#d79b00;fillColor=#ffcd28;gradientColor=#ffa500;" parent="1" source="6" target="17" edge="1">
                    <mxGeometry width="50" height="50" relative="1" as="geometry">
                        <mxPoint x="420" y="-76.14000000000023" as="sourcePoint"/>
                        <mxPoint x="40" y="-80" as="targetPoint"/>
                    </mxGeometry>
                </mxCell>
                <mxCell id="40" value="" style="endArrow=none;html=1;entryX=0.5;entryY=1;entryDx=0;entryDy=0;exitX=0;exitY=0.25;exitDx=0;exitDy=0;fontSize=12;strokeColor=#d79b00;fillColor=#ffcd28;gradientColor=#ffa500;" parent="1" source="17" target="19" edge="1">
                    <mxGeometry width="50" height="50" relative="1" as="geometry">
                        <mxPoint x="10" y="400" as="sourcePoint"/>
                        <mxPoint x="60" y="350" as="targetPoint"/>
                    </mxGeometry>
                </mxCell>
                <mxCell id="43" value="" style="endArrow=none;html=1;entryX=0.5;entryY=1;entryDx=0;entryDy=0;exitX=0.25;exitY=0;exitDx=0;exitDy=0;fontSize=12;strokeColor=#d79b00;fillColor=#ffcd28;gradientColor=#ffa500;" parent="1" source="17" target="20" edge="1">
                    <mxGeometry width="50" height="50" relative="1" as="geometry">
                        <mxPoint x="160" y="115.86000000000001" as="sourcePoint"/>
                        <mxPoint x="108.28427124746213" y="70.00213562373108" as="targetPoint"/>
                    </mxGeometry>
                </mxCell>
                <mxCell id="45" value="" style="endArrow=none;html=1;entryX=0.5;entryY=1;entryDx=0;entryDy=0;exitX=0.5;exitY=0;exitDx=0;exitDy=0;fontSize=12;strokeColor=#d79b00;fillColor=#ffcd28;gradientColor=#ffa500;" parent="1" source="17" target="3" edge="1">
                    <mxGeometry width="50" height="50" relative="1" as="geometry">
                        <mxPoint x="301.72000000000025" y="149.85999999999984" as="sourcePoint"/>
                        <mxPoint x="250.00427124746238" y="104.00213562373091" as="targetPoint"/>
                    </mxGeometry>
                </mxCell>
                <mxCell id="46" value="" style="endArrow=none;html=1;entryX=1;entryY=0.5;entryDx=0;entryDy=0;exitX=0;exitY=0.25;exitDx=0;exitDy=0;fontSize=12;strokeColor=#d79b00;fillColor=#ffcd28;gradientColor=#ffa500;" parent="1" source="14" target="13" edge="1">
                    <mxGeometry width="50" height="50" relative="1" as="geometry">
                        <mxPoint x="-568.28" y="70" as="sourcePoint"/>
                        <mxPoint x="-619.9957287525378" y="24.142135623731065" as="targetPoint"/>
                    </mxGeometry>
                </mxCell>
                <mxCell id="47" value="" style="endArrow=none;html=1;entryX=1;entryY=0.5;entryDx=0;entryDy=0;exitX=0;exitY=0.75;exitDx=0;exitDy=0;fontSize=12;strokeColor=#d79b00;fillColor=#ffcd28;gradientColor=#ffa500;" parent="1" source="14" target="28" edge="1">
                    <mxGeometry width="50" height="50" relative="1" as="geometry">
                        <mxPoint x="-610" y="110" as="sourcePoint"/>
                        <mxPoint x="-650" y="110" as="targetPoint"/>
                    </mxGeometry>
                </mxCell>
                <mxCell id="54" value="Noticia" style="rounded=1;whiteSpace=wrap;html=1;fillColor=#FF99FF;gradientColor=#FF9933;gradientDirection=north;" parent="1" vertex="1">
                    <mxGeometry x="460" y="80" width="120" height="80" as="geometry"/>
                </mxCell>
                <mxCell id="55" value="url_noticia" style="ellipse;whiteSpace=wrap;html=1;fillColor=#330066;gradientColor=#6666FF;" parent="1" vertex="1">
                    <mxGeometry x="600" y="120" width="80" height="40" as="geometry"/>
                </mxCell>
                <mxCell id="57" value="" style="endArrow=none;html=1;exitX=1;exitY=0.75;exitDx=0;exitDy=0;entryX=0;entryY=0.5;entryDx=0;entryDy=0;fontSize=12;strokeColor=#d79b00;fillColor=#ffcd28;gradientColor=#ffa500;" parent="1" source="54" target="55" edge="1">
                    <mxGeometry width="50" height="50" relative="1" as="geometry">
                        <mxPoint x="480" y="70" as="sourcePoint"/>
                        <mxPoint x="590" y="140" as="targetPoint"/>
                    </mxGeometry>
                </mxCell>
                <mxCell id="58" value="xpath_fecha" style="ellipse;whiteSpace=wrap;html=1;fillColor=#330066;gradientColor=#6666FF;" parent="1" vertex="1">
                    <mxGeometry x="600" y="200" width="80" height="40" as="geometry"/>
                </mxCell>
                <mxCell id="59" value="xpath_titulo" style="ellipse;whiteSpace=wrap;html=1;fillColor=#330066;gradientColor=#6666FF;" parent="1" vertex="1">
                    <mxGeometry x="600" width="80" height="40" as="geometry"/>
                </mxCell>
                <mxCell id="60" value="xpath contenido" style="ellipse;whiteSpace=wrap;html=1;fillColor=#330066;gradientColor=#6666FF;" parent="1" vertex="1">
                    <mxGeometry x="600" y="80" width="80" height="40" as="geometry"/>
                </mxCell>
                <mxCell id="62" value="" style="endArrow=none;html=1;entryX=0;entryY=0.5;entryDx=0;entryDy=0;exitX=0.831;exitY=1.018;exitDx=0;exitDy=0;exitPerimeter=0;fontSize=12;strokeColor=#d79b00;fillColor=#ffcd28;gradientColor=#ffa500;" parent="1" source="54" target="58" edge="1">
                    <mxGeometry width="50" height="50" relative="1" as="geometry">
                        <mxPoint x="570" y="160" as="sourcePoint"/>
                        <mxPoint x="469.99999999998954" y="60.000000000000114" as="targetPoint"/>
                    </mxGeometry>
                </mxCell>
                <mxCell id="65" value="" style="endArrow=none;html=1;exitX=0.75;exitY=0;exitDx=0;exitDy=0;entryX=0;entryY=0.5;entryDx=0;entryDy=0;fontSize=12;strokeColor=#d79b00;fillColor=#ffcd28;gradientColor=#ffa500;" parent="1" source="54" target="59" edge="1">
                    <mxGeometry width="50" height="50" relative="1" as="geometry">
                        <mxPoint x="565.96" y="72.19999999999999" as="sourcePoint"/>
                        <mxPoint x="640" y="40" as="targetPoint"/>
                    </mxGeometry>
                </mxCell>
                <mxCell id="66" value="" style="endArrow=none;html=1;entryX=1;entryY=0.25;entryDx=0;entryDy=0;exitX=0;exitY=0.5;exitDx=0;exitDy=0;fontSize=12;strokeColor=#d79b00;fillColor=#ffcd28;gradientColor=#ffa500;" parent="1" source="60" target="54" edge="1">
                    <mxGeometry width="50" height="50" relative="1" as="geometry">
                        <mxPoint x="621.9200000000001" y="120" as="sourcePoint"/>
                        <mxPoint x="590.0000000000005" y="97.80000000000001" as="targetPoint"/>
                    </mxGeometry>
                </mxCell>
                <mxCell id="68" value="fundan" style="rhombus;whiteSpace=wrap;html=1;fillColor=#4FFFA7;gradientColor=#2BFFF8;" parent="1" vertex="1">
                    <mxGeometry x="-600" y="-120" width="80" height="80" as="geometry"/>
                </mxCell>
                <mxCell id="70" value="" style="endArrow=none;html=1;exitX=0.5;exitY=0;exitDx=0;exitDy=0;entryX=0.5;entryY=1;entryDx=0;entryDy=0;fontSize=12;strokeColor=#d79b00;fillColor=#ffcd28;gradientColor=#ffa500;" parent="1" source="14" target="68" edge="1">
                    <mxGeometry width="50" height="50" relative="1" as="geometry">
                        <mxPoint x="-510" y="-105" as="sourcePoint"/>
                        <mxPoint x="-570" y="25" as="targetPoint"/>
                    </mxGeometry>
                </mxCell>
                <mxCell id="72" value="" style="endArrow=none;html=1;entryX=1;entryY=0.5;entryDx=0;entryDy=0;exitX=0;exitY=0.5;exitDx=0;exitDy=0;fontSize=12;fillColor=#ffcd28;gradientColor=#ffa500;strokeColor=#d79b00;" parent="1" source="17" target="68" edge="1">
                    <mxGeometry width="50" height="50" relative="1" as="geometry">
                        <mxPoint x="100" y="120" as="sourcePoint"/>
                        <mxPoint x="78.28427124746213" y="114.14213562373106" as="targetPoint"/>
                    </mxGeometry>
                </mxCell>
                <mxCell id="73" value="N" style="text;html=1;align=center;verticalAlign=middle;resizable=0;points=[];autosize=1;strokeColor=none;fillColor=none;" parent="1" vertex="1">
                    <mxGeometry x="-540" y="50" width="30" height="30" as="geometry"/>
                </mxCell>
                <mxCell id="76" value="Manejan" style="rhombus;whiteSpace=wrap;html=1;fillColor=#4FFFA7;gradientColor=#2BFFF8;" parent="1" vertex="1">
                    <mxGeometry x="240" y="280" width="80" height="80" as="geometry"/>
                </mxCell>
                <mxCell id="78" value="" style="endArrow=none;html=1;entryX=0.5;entryY=1;entryDx=0;entryDy=0;exitX=0.5;exitY=0;exitDx=0;exitDy=0;fontSize=12;strokeColor=#d79b00;fillColor=#ffcd28;gradientColor=#ffa500;" parent="1" source="25" target="76" edge="1">
                    <mxGeometry width="50" height="50" relative="1" as="geometry">
                        <mxPoint x="195" y="280" as="sourcePoint"/>
                        <mxPoint x="183.07999999999993" y="247.79999999999995" as="targetPoint"/>
                    </mxGeometry>
                </mxCell>
                <mxCell id="80" value="" style="endArrow=none;html=1;fontSize=12;strokeColor=#d79b00;fillColor=#ffcd28;gradientColor=#ffa500;" parent="1" edge="1">
                    <mxGeometry width="50" height="50" relative="1" as="geometry">
                        <mxPoint y="-50" as="sourcePoint"/>
                        <mxPoint y="320" as="targetPoint"/>
                    </mxGeometry>
                </mxCell>
                <mxCell id="81" value="N" style="text;html=1;align=center;verticalAlign=middle;resizable=0;points=[];autosize=1;strokeColor=none;fillColor=none;" parent="1" vertex="1">
                    <mxGeometry x="250" y="370" width="30" height="30" as="geometry"/>
                </mxCell>
                <mxCell id="82" value="1" style="text;html=1;align=center;verticalAlign=middle;resizable=0;points=[];autosize=1;strokeColor=none;fillColor=none;" parent="1" vertex="1">
                    <mxGeometry y="-40" width="30" height="30" as="geometry"/>
                </mxCell>
                <mxCell id="85" value="1" style="text;html=1;align=center;verticalAlign=middle;resizable=0;points=[];autosize=1;strokeColor=none;fillColor=none;" parent="1" vertex="1">
                    <mxGeometry x="-110" y="-80" width="30" height="30" as="geometry"/>
                </mxCell>
                <mxCell id="96" value="publican" style="rhombus;whiteSpace=wrap;html=1;fillColor=#4FFFA7;gradientColor=#2BFFF8;" parent="1" vertex="1">
                    <mxGeometry x="480" y="-120" width="80" height="80" as="geometry"/>
                </mxCell>
                <mxCell id="98" value="" style="endArrow=none;html=1;entryX=0;entryY=0.5;entryDx=0;entryDy=0;fillColor=#ffcd28;strokeColor=#d79b00;gradientColor=#ffa500;" parent="1" target="96" edge="1">
                    <mxGeometry width="50" height="50" relative="1" as="geometry">
                        <mxPoint x="40" y="-80" as="sourcePoint"/>
                        <mxPoint x="240" y="60" as="targetPoint"/>
                    </mxGeometry>
                </mxCell>
                <mxCell id="99" value="" style="endArrow=none;html=1;entryX=0.5;entryY=0;entryDx=0;entryDy=0;exitX=0.5;exitY=1;exitDx=0;exitDy=0;fontSize=12;strokeColor=#d79b00;fillColor=#ffcd28;gradientColor=#ffa500;" parent="1" target="54" edge="1" source="96">
                    <mxGeometry width="50" height="50" relative="1" as="geometry">
                        <mxPoint x="560" y="-80" as="sourcePoint"/>
                        <mxPoint x="490" y="-70" as="targetPoint"/>
                    </mxGeometry>
                </mxCell>
                <mxCell id="100" value="1" style="text;html=1;align=center;verticalAlign=middle;resizable=0;points=[];autosize=1;strokeColor=none;fillColor=none;" parent="1" vertex="1">
                    <mxGeometry x="40" y="-60" width="30" height="30" as="geometry"/>
                </mxCell>
                <mxCell id="101" value="N" style="text;html=1;align=center;verticalAlign=middle;resizable=0;points=[];autosize=1;strokeColor=none;fillColor=none;" parent="1" vertex="1">
                    <mxGeometry x="480" y="50" width="30" height="30" as="geometry"/>
                </mxCell>
                <mxCell id="104" value="seguidores" style="ellipse;whiteSpace=wrap;html=1;fillColor=#330066;gradientColor=#6666FF;" parent="1" vertex="1">
                    <mxGeometry x="400" y="420" width="80" height="40" as="geometry"/>
                </mxCell>
                <mxCell id="105" value="" style="endArrow=none;html=1;entryX=0;entryY=0.5;entryDx=0;entryDy=0;exitX=1;exitY=0.5;exitDx=0;exitDy=0;fontSize=12;strokeColor=#d79b00;fillColor=#ffcd28;gradientColor=#ffa500;" parent="1" source="25" target="104" edge="1">
                    <mxGeometry width="50" height="50" relative="1" as="geometry">
                        <mxPoint x="318" y="492" as="sourcePoint"/>
                        <mxPoint x="350" y="530" as="targetPoint"/>
                    </mxGeometry>
                </mxCell>
                <mxCell id="106" value="categoria" style="rounded=1;whiteSpace=wrap;html=1;fillColor=#FF99FF;gradientColor=#FF9933;gradientDirection=north;" parent="1" vertex="1">
                    <mxGeometry x="-400" y="400" width="160" height="80" as="geometry"/>
                </mxCell>
                <mxCell id="107" value="url_categoria" style="ellipse;whiteSpace=wrap;html=1;fillColor=#330066;gradientColor=#6666FF;" parent="1" vertex="1">
                    <mxGeometry x="-520" y="420" width="80" height="40" as="geometry"/>
                </mxCell>
                <mxCell id="111" value="1" style="text;html=1;align=center;verticalAlign=middle;resizable=0;points=[];autosize=1;strokeColor=none;fillColor=none;" parent="1" vertex="1">
                    <mxGeometry x="-485" y="80" width="30" height="30" as="geometry"/>
                </mxCell>
                <mxCell id="112" value="1" style="text;html=1;align=center;verticalAlign=middle;resizable=0;points=[];autosize=1;strokeColor=none;fillColor=none;" parent="1" vertex="1">
                    <mxGeometry x="-485" y="130" width="30" height="30" as="geometry"/>
                </mxCell>
                <mxCell id="124" value="contiene" style="rhombus;whiteSpace=wrap;html=1;fillColor=#4FFFA7;gradientColor=#2BFFF8;" parent="1" vertex="1">
                    <mxGeometry x="-360" y="280" width="80" height="80" as="geometry"/>
                </mxCell>
                <mxCell id="125" value="" style="endArrow=none;html=1;entryX=0.5;entryY=0;entryDx=0;entryDy=0;exitX=0.5;exitY=1;exitDx=0;exitDy=0;fontSize=12;strokeColor=#d79b00;fillColor=#ffcd28;gradientColor=#ffa500;" parent="1" source="124" target="106" edge="1">
                    <mxGeometry width="50" height="50" relative="1" as="geometry">
                        <mxPoint x="-245" y="200" as="sourcePoint"/>
                        <mxPoint x="-195" y="225" as="targetPoint"/>
                    </mxGeometry>
                </mxCell>
                <mxCell id="126" value="" style="endArrow=none;html=1;fontSize=12;strokeColor=#d79b00;fillColor=#ffcd28;gradientColor=#ffa500;" parent="1" edge="1">
                    <mxGeometry width="50" height="50" relative="1" as="geometry">
                        <mxPoint x="-40" y="-40" as="sourcePoint"/>
                        <mxPoint x="-40" y="320" as="targetPoint"/>
                    </mxGeometry>
                </mxCell>
                <mxCell id="127" value="1" style="text;html=1;align=center;verticalAlign=middle;resizable=0;points=[];autosize=1;strokeColor=none;fillColor=none;" parent="1" vertex="1">
                    <mxGeometry x="-70" y="-40" width="30" height="30" as="geometry"/>
                </mxCell>
                <mxCell id="128" value="N" style="text;html=1;align=center;verticalAlign=middle;resizable=0;points=[];autosize=1;strokeColor=none;fillColor=none;" parent="1" vertex="1">
                    <mxGeometry x="-320" y="370" width="30" height="30" as="geometry"/>
                </mxCell>
                <mxCell id="131" value="url_principal" style="ellipse;whiteSpace=wrap;html=1;fillColor=#330066;gradientColor=#6666FF;" parent="1" vertex="1">
                    <mxGeometry x="-360" y="-240" width="80" height="40" as="geometry"/>
                </mxCell>
                <mxCell id="132" value="id_ubicacion" style="ellipse;whiteSpace=wrap;html=1;fillColor=#330066;gradientColor=#6666FF;" parent="1" vertex="1">
                    <mxGeometry x="80" y="-440" width="80" height="40" as="geometry"/>
                </mxCell>
                <mxCell id="133" value="" style="endArrow=none;html=1;exitX=0.75;exitY=0;exitDx=0;exitDy=0;entryX=0.5;entryY=1;entryDx=0;entryDy=0;fontSize=12;strokeColor=#d79b00;fillColor=#ffcd28;gradientColor=#ffa500;" parent="1" source="17" target="132" edge="1">
                    <mxGeometry width="50" height="50" relative="1" as="geometry">
                        <mxPoint x="340" y="-120" as="sourcePoint"/>
                        <mxPoint x="130" y="-410" as="targetPoint"/>
                    </mxGeometry>
                </mxCell>
                <mxCell id="135" value="id_red_social" style="ellipse;whiteSpace=wrap;html=1;fillColor=#330066;gradientColor=#6666FF;" parent="1" vertex="1">
                    <mxGeometry x="240" y="520" width="80" height="40" as="geometry"/>
                </mxCell>
                <mxCell id="136" value="" style="endArrow=none;html=1;entryX=0.5;entryY=0;entryDx=0;entryDy=0;exitX=0.5;exitY=1;exitDx=0;exitDy=0;fontSize=12;strokeColor=#d79b00;fillColor=#ffcd28;gradientColor=#ffa500;" parent="1" source="25" target="135" edge="1">
                    <mxGeometry width="50" height="50" relative="1" as="geometry">
                        <mxPoint x="380" y="395" as="sourcePoint"/>
                        <mxPoint x="341.71572875253787" y="520.8578643762689" as="targetPoint"/>
                    </mxGeometry>
                </mxCell>
                <mxCell id="137" value="id_prensa" style="ellipse;whiteSpace=wrap;html=1;fillColor=#330066;gradientColor=#6666FF;" parent="1" vertex="1">
                    <mxGeometry x="-280" y="-400" width="80" height="40" as="geometry"/>
                </mxCell>
                <mxCell id="138" value="" style="endArrow=none;html=1;exitX=0;exitY=0.5;exitDx=0;exitDy=0;entryX=1;entryY=0.5;entryDx=0;entryDy=0;fontSize=12;strokeColor=#d79b00;fillColor=#ffcd28;gradientColor=#ffa500;" parent="1" source="17" target="131" edge="1">
                    <mxGeometry width="50" height="50" relative="1" as="geometry">
                        <mxPoint x="-130" y="550" as="sourcePoint"/>
                        <mxPoint x="-240" y="-180" as="targetPoint"/>
                    </mxGeometry>
                </mxCell>
                <mxCell id="139" value="" style="endArrow=none;html=1;entryX=0;entryY=0.5;entryDx=0;entryDy=0;exitX=1;exitY=0.5;exitDx=0;exitDy=0;fontSize=12;strokeColor=#d79b00;fillColor=#ffcd28;gradientColor=#ffa500;" parent="1" source="107" target="106" edge="1">
                    <mxGeometry width="50" height="50" relative="1" as="geometry">
                        <mxPoint x="-360" y="510" as="sourcePoint"/>
                        <mxPoint x="-175" y="520" as="targetPoint"/>
                    </mxGeometry>
                </mxCell>
                <mxCell id="142" value="" style="endArrow=none;html=1;entryX=1;entryY=0.5;entryDx=0;entryDy=0;fontSize=12;strokeColor=#d79b00;fillColor=#ffcd28;gradientColor=#ffa500;" edge="1" parent="1" target="124">
                    <mxGeometry width="50" height="50" relative="1" as="geometry">
                        <mxPoint x="-40" y="320" as="sourcePoint"/>
                        <mxPoint x="-139.99999999999977" y="450" as="targetPoint"/>
                    </mxGeometry>
                </mxCell>
                <mxCell id="144" value="" style="endArrow=none;html=1;entryX=1;entryY=0.5;entryDx=0;entryDy=0;exitX=0;exitY=0.5;exitDx=0;exitDy=0;fontSize=12;strokeColor=#d79b00;fillColor=#ffcd28;gradientColor=#ffa500;" edge="1" parent="1" source="76">
                    <mxGeometry width="50" height="50" relative="1" as="geometry">
                        <mxPoint x="200" y="310" as="sourcePoint"/>
                        <mxPoint y="319.47" as="targetPoint"/>
                    </mxGeometry>
                </mxCell>
                <mxCell id="146" value="X_PATH" style="ellipse;whiteSpace=wrap;html=1;fillColor=#330066;gradientColor=#6666FF;" vertex="1" parent="1">
                    <mxGeometry x="-360" y="520" width="80" height="40" as="geometry"/>
                </mxCell>
                <mxCell id="147" value="" style="endArrow=none;html=1;entryX=0.5;entryY=1;entryDx=0;entryDy=0;fontSize=12;strokeColor=#d79b00;fillColor=#ffcd28;gradientColor=#ffa500;" edge="1" parent="1" target="106">
                    <mxGeometry width="50" height="50" relative="1" as="geometry">
                        <mxPoint x="-320" y="520" as="sourcePoint"/>
                        <mxPoint x="-300" y="530" as="targetPoint"/>
                    </mxGeometry>
                </mxCell>
            </root>
        </mxGraphModel>
    </diagram>
</mxfile>